<?xml version="1.0" standalone="no"?>
<!DOCTYPE svg PUBLIC "-//W3C//DTD SVG 20010904//EN"
 "http://www.w3.org/TR/2001/REC-SVG-20010904/DTD/svg10.dtd">
<svg version="1.0" xmlns="http://www.w3.org/2000/svg"
 width="512.000000pt" height="512.000000pt" viewBox="0 0 512.000000 512.000000"
 preserveAspectRatio="xMidYMid meet">
<metadata>
Created by potrace 1.11, written by Peter Selinger 2001-2013
</metadata>
<g transform="translate(0.000000,512.000000) scale(0.100000,-0.100000)"
fill="#000000" stroke="none">
<path d="M4300 5096 c-50 -9 -425 -121 -860 -256 -69 -22 -201 -62 -295 -91
-733 -222 -1091 -333 -1152 -357 -111 -42 -251 -167 -321 -285 -38 -63 -77
-171 -86 -237 -4 -25 -7 -569 -7 -1209 0 -1097 -1 -1163 -17 -1158 -9 3 -36
13 -59 21 -111 41 -273 48 -463 19 -25 -3 -47 -7 -50 -8 -88 -21 -130 -34
-203 -62 -302 -118 -528 -337 -624 -604 -23 -65 -26 -89 -27 -204 0 -110 3
-139 22 -190 27 -72 88 -168 136 -213 89 -84 247 -167 358 -187 13 -3 34 -8
48 -11 14 -3 84 -8 155 -11 493 -19 944 262 1075 670 12 37 24 79 27 95 2 15
6 502 7 1082 2 991 4 1057 20 1090 31 60 65 99 119 135 51 35 80 45 547 191
96 31 209 66 250 79 100 32 389 122 575 180 83 26 170 54 195 62 25 8 52 16
60 18 8 2 109 33 223 69 223 71 273 78 324 46 63 -38 60 4 59 -885 -1 -715 -3
-810 -16 -806 -8 3 -46 15 -83 28 -88 29 -116 33 -262 37 -130 4 -224 -4 -322
-28 -13 -4 -31 -8 -40 -10 -41 -10 -173 -61 -228 -89 -238 -119 -431 -328
-502 -542 -38 -114 -42 -270 -9 -372 30 -91 66 -154 130 -221 224 -237 649
-305 1051 -167 100 35 288 141 350 198 185 172 279 323 310 497 8 47 11 527
10 1740 -1 1590 -2 1678 -19 1725 -62 169 -222 257 -406 221z"/>
</g>
</svg>
